<?xml version="1.0" encoding="UTF-8"?>
<svg width="1208px" height="398px" viewBox="0 0 1208 398" version="1.1" xmlns="http://www.w3.org/2000/svg" xmlns:xlink="http://www.w3.org/1999/xlink">
    <!-- Generator: Sketch 50 (54983) - http://www.bohemiancoding.com/sketch -->
    <title>Artboard</title>
    <desc>Created with Sketch.</desc>
    <defs></defs>
    <g id="Artboard" stroke="none" stroke-width="1" fill="none" fill-rule="evenodd">
        <g id="svg_logo">
            <path d="M409.896,107.472 C402.984,118.128 395.208,127.344 386.568,135.12 L374.184,119.568 C388.008,106.896 399.528,89.04 409.032,66 L427.752,70.032 C425.16,76.944 422.568,83.28 419.976,89.04 L502.344,89.04 L502.344,107.472 L458.856,107.472 C458.28,117.264 457.416,126.768 456.264,135.408 L510.408,135.408 L510.408,154.416 L451.944,154.416 C451.08,157.296 450.216,159.888 449.64,162.48 C471.528,173.424 489.96,184.656 504.936,196.176 L490.248,210.864 C478.152,199.92 462.6,188.976 443.016,177.456 C431.496,197.616 411.336,214.32 382.824,227.568 L369,210.576 C398.952,197.328 418.536,180.912 428.04,161.328 L430.92,154.416 L373.032,154.416 L373.032,135.408 L436.104,135.408 C437.832,126.48 438.696,117.264 439.272,107.472 L409.896,107.472 Z M522.504,87.6 L617.256,87.6 L617.256,193.008 L522.504,193.008 L522.504,87.6 Z M597.096,174.576 L597.096,106.032 L542.664,106.032 L542.664,174.576 L597.096,174.576 Z M596.808,213.744 L596.808,332.688 L575.784,332.688 L575.784,319.728 L433.224,319.728 L433.224,332.688 L412.488,332.688 L412.488,213.744 L596.808,213.744 Z M433.224,301.296 L575.784,301.296 L575.784,276.528 L433.224,276.528 L433.224,301.296 Z M433.224,258.384 L575.784,258.384 L575.784,232.176 L433.224,232.176 L433.224,258.384 Z M714.024,141.744 C702.504,167.952 687.816,189.84 669.96,207.696 L656.712,190.704 C683.784,162.48 702.216,124.176 711.72,76.08 L732.744,79.824 C729.576,94.8 725.832,108.624 721.512,121.584 L783.144,121.584 L783.144,70.32 L804.168,70.32 L804.168,121.584 L898.92,121.584 L898.92,141.744 L804.168,141.744 L804.168,208.272 L893.16,208.272 L893.16,228.432 L804.168,228.432 L804.168,301.584 L917.352,301.584 L917.352,322.32 L663.624,322.32 L663.624,301.584 L783.144,301.584 L783.144,228.432 L698.472,228.432 L698.472,208.272 L783.144,208.272 L783.144,141.744 L714.024,141.744 Z M1021.32,151.824 L1103.688,151.824 L1103.688,106.608 C1081.8,108.624 1058.472,109.776 1033.704,109.776 L1027.368,91.056 C1090.152,91.056 1142.568,83.856 1184.04,69.744 L1194.12,87.6 C1173.96,94.8 1150.92,100.272 1124.712,104.016 L1124.712,151.824 L1207.656,151.824 L1207.656,171.696 L1124.712,171.696 L1124.712,216.336 L1189.512,216.336 L1189.512,331.824 L1169.064,331.824 L1169.064,316.56 L1061.064,316.56 L1061.064,332.4 L1040.616,332.4 L1040.616,216.336 L1103.688,216.336 L1103.688,171.696 L1021.32,171.696 L1021.32,151.824 Z M1061.064,296.976 L1169.064,296.976 L1169.064,235.92 L1061.064,235.92 L1061.064,296.976 Z M969.192,72.048 C988.488,84.72 1004.904,97.392 1018.152,110.064 L1004.04,124.176 C992.232,112.08 975.816,99.408 955.08,85.584 L969.192,72.048 Z M962.568,140.88 C982.152,154.992 998.856,169.104 1012.104,183.504 L997.704,197.904 C985.608,184.368 969.192,169.968 948.168,154.992 L962.568,140.88 Z M996.552,217.488 L1015.272,224.688 C1002.6,261.552 988.776,296.4 973.8,328.656 L953.064,319.728 C969.768,286.32 984.456,252.336 996.552,217.488 Z" id="智生活" fill="#9B9B9B"></path>
            <polygon id="Shape" fill="#959500" fill-rule="nonzero" points="103.913978 0 172.688172 38.1935484 67.2688172 102.365591 0 58.0215054"></polygon>
            <polygon id="Shape" fill="#CBD100" fill-rule="nonzero" points="139.053763 126.795699 139.053763 206.236559 268.903226 281.11828 268.903226 200.129032"></polygon>
            <polygon id="Shape" fill="#959500" fill-rule="nonzero" points="0 352.817204 68.7741935 397.204301 268.903226 281.11828 268.903226 200.129032"></polygon>
            <polygon id="Shape" fill="#CBD100" fill-rule="nonzero" points="0 352.817204 67.2688172 397.204301 67.2688172 102.365591 0 58.0215054"></polygon>
        </g>
    </g>
</svg>